<svg width="100%" viewBox="0 0 680 180" xmlns="http://www.w3.org/2000/svg">
  <rect width="680" height="180" rx="16" fill="#0d1117"/>

  <!-- steam lines -->
  <path d="M260 62 Q255 50 260 38 Q265 26 260 14" fill="none" stroke="#6e7681" stroke-width="1.5" stroke-linecap="round" opacity="0.6"/>
  <path d="M278 58 Q273 46 278 34 Q283 22 278 10" fill="none" stroke="#6e7681" stroke-width="1.5" stroke-linecap="round" opacity="0.4"/>
  <path d="M296 62 Q291 50 296 38 Q301 26 296 14" fill="none" stroke="#6e7681" stroke-width="1.5" stroke-linecap="round" opacity="0.5"/>

  <!-- cup body -->
  <path d="M240 70 L250 140 Q278 152 305 140 L315 70 Z" fill="#161b22" stroke="#30363d" stroke-width="1"/>

  <!-- coffee surface -->
  <ellipse cx="277" cy="72" rx="38" ry="10" fill="#3d2010"/>
  <ellipse cx="277" cy="72" rx="30" ry="7" fill="#4e2a14" opacity="0.7"/>

  <!-- cup rim -->
  <ellipse cx="277" cy="70" rx="38" ry="10" fill="none" stroke="#30363d" stroke-width="1.5"/>

  <!-- handle -->
  <path d="M315 88 Q338 88 338 108 Q338 128 315 128" fill="none" stroke="#30363d" stroke-width="6" stroke-linecap="round"/>
  <path d="M315 88 Q332 88 332 108 Q332 122 315 122" fill="none" stroke="#161b22" stroke-width="3" stroke-linecap="round"/>

  <!-- saucer -->
  <ellipse cx="277" cy="145" rx="52" ry="10" fill="#161b22" stroke="#30363d" stroke-width="1"/>
  <ellipse cx="277" cy="145" rx="38" ry="6" fill="#0d1117" stroke="#30363d" stroke-width="0.5"/>

  <!-- divider -->
  <line x1="370" y1="30" x2="370" y2="150" stroke="#21262d" stroke-width="1"/>

  <!-- text block -->
  <text x="400" y="58" font-family="'Courier New', monospace" font-size="11" fill="#58a6ff" opacity="0.8">const fuel = {</text>
  <text x="416" y="76" font-family="'Courier New', monospace" font-size="11" fill="#8b949e">type:</text>
  <text x="452" y="76" font-family="'Courier New', monospace" font-size="11" fill="#a5d6ff">"espresso"</text>
  <text x="520" y="76" font-family="'Courier New', monospace" font-size="11" fill="#8b949e">,</text>
  <text x="416" y="94" font-family="'Courier New', monospace" font-size="11" fill="#8b949e">cups:</text>
  <text x="452" y="94" font-family="'Courier New', monospace" font-size="11" fill="#79c0ff">Infinity</text>
  <text x="497" y="94" font-family="'Courier New', monospace" font-size="11" fill="#8b949e">,</text>
  <text x="416" y="112" font-family="'Courier New', monospace" font-size="11" fill="#8b949e">optional:</text>
  <text x="472" y="112" font-family="'Courier New', monospace" font-size="11" fill="#ff7b72">false</text>
  <text x="495" y="112" font-family="'Courier New', monospace" font-size="11" fill="#8b949e">,</text>
  <text x="400" y="130" font-family="'Courier New', monospace" font-size="11" fill="#58a6ff" opacity="0.8">}</text>
</svg>
